<?xml version="1.0" encoding="UTF-8" standalone="no"?>
<!-- Created with Inkscape (http://www.inkscape.org/) -->

<svg
   xmlns:dc="http://purl.org/dc/elements/1.1/"
   xmlns:cc="http://creativecommons.org/ns#"
   xmlns:rdf="http://www.w3.org/1999/02/22-rdf-syntax-ns#"
   xmlns:svg="http://www.w3.org/2000/svg"
   xmlns="http://www.w3.org/2000/svg"
   xmlns:sodipodi="http://sodipodi.sourceforge.net/DTD/sodipodi-0.dtd"
   xmlns:inkscape="http://www.inkscape.org/namespaces/inkscape"
   width="744.09448819"
   height="1052.3622047"
   id="svg2"
   version="1.1"
   inkscape:version="0.48.2 r9819"
   sodipodi:docname="New document 1">
  <defs
     id="defs4">
    <marker
       inkscape:stockid="Arrow2Mend"
       orient="auto"
       refY="0.0"
       refX="0.0"
       id="Arrow2Mend"
       style="overflow:visible;">
      <path
         id="path3814"
         style="font-size:12.0;fill-rule:evenodd;stroke-width:0.62500000;stroke-linejoin:round;"
         d="M 8.7185878,4.0337352 L -2.2072895,0.016013256 L 8.7185884,-4.0017078 C 6.9730900,-1.6296469 6.9831476,1.6157441 8.7185878,4.0337352 z "
         transform="scale(0.6) rotate(180) translate(0,0)" />
    </marker>
    <marker
       inkscape:stockid="Arrow1Mend"
       orient="auto"
       refY="0.0"
       refX="0.0"
       id="Arrow1Mend"
       style="overflow:visible;">
      <path
         id="path3796"
         d="M 0.0,0.0 L 5.0,-5.0 L -12.5,0.0 L 5.0,5.0 L 0.0,0.0 z "
         style="fill-rule:evenodd;stroke:#000000;stroke-width:1.0pt;marker-start:none;"
         transform="scale(0.4) rotate(180) translate(10,0)" />
    </marker>
    <marker
       inkscape:stockid="Arrow1Lend"
       orient="auto"
       refY="0.0"
       refX="0.0"
       id="Arrow1Lend"
       style="overflow:visible;">
      <path
         id="path3790"
         d="M 0.0,0.0 L 5.0,-5.0 L -12.5,0.0 L 5.0,5.0 L 0.0,0.0 z "
         style="fill-rule:evenodd;stroke:#000000;stroke-width:1.0pt;marker-start:none;"
         transform="scale(0.8) rotate(180) translate(12.5,0)" />
    </marker>
    <marker
       inkscape:stockid="TriangleOutL"
       orient="auto"
       refY="0.0"
       refX="0.0"
       id="TriangleOutL"
       style="overflow:visible">
      <path
         id="path3930"
         d="M 5.77,0.0 L -2.88,5.0 L -2.88,-5.0 L 5.77,0.0 z "
         style="fill-rule:evenodd;stroke:#000000;stroke-width:1.0pt;marker-start:none"
         transform="scale(0.8)" />
    </marker>
  </defs>
  <sodipodi:namedview
     id="base"
     pagecolor="#000000"
     bordercolor="#666666"
     borderopacity="1.0"
     inkscape:pageopacity="1"
     inkscape:pageshadow="2"
     inkscape:zoom="1"
     inkscape:cx="437.87986"
     inkscape:cy="720.59077"
     inkscape:document-units="px"
     inkscape:current-layer="layer1"
     showgrid="false"
     inkscape:window-width="1440"
     inkscape:window-height="852"
     inkscape:window-x="0"
     inkscape:window-y="0"
     inkscape:window-maximized="1" />
  <metadata
     id="metadata7">
    <rdf:RDF>
      <cc:Work
         rdf:about="">
        <dc:format>image/svg+xml</dc:format>
        <dc:type
           rdf:resource="http://purl.org/dc/dcmitype/StillImage" />
        <dc:title></dc:title>
      </cc:Work>
    </rdf:RDF>
  </metadata>
  <g
     inkscape:label="Layer 1"
     inkscape:groupmode="layer"
     id="layer1">
    <path
       style="font-size:medium;font-style:normal;font-variant:normal;font-weight:normal;font-stretch:normal;text-indent:0;text-align:start;text-decoration:none;line-height:normal;letter-spacing:normal;word-spacing:normal;text-transform:none;direction:ltr;block-progression:tb;writing-mode:lr-tb;text-anchor:start;baseline-shift:baseline;color:#000000;fill:#ffffff;fill-opacity:1;stroke:none;stroke-width:6.5999999;marker:none;visibility:visible;display:inline;overflow:visible;enable-background:accumulate;font-family:Sans;-inkscape-font-specification:Sans"
       d="m 322.27118,472.08517 0,1.69291 1.73802,34.61329 -18.01516,0 -4.77529,0 3.72122,3.00252 c 12.39719,9.32711 23.06933,17.91489 31.8619,25.69715 l 1.05408,0.84646 1.05408,-0.84646 c 9.34818,-8.56571 19.64233,-17.13143 32.06953,-25.69715 l 3.75316,-3.00252 -4.80724,0 -18.5901,0 0.77245,-33.45461 0,-1.69292 -1.69291,0 -26.45082,-1.15867 z m 5.12385,3.96516 20.55452,0 c 1.17447,11.34465 0.23949,22.6893 0,34.03395 l 0,1.69292 1.69291,0 16.24824,-0.19312 c -9.92433,6.76769 -19.13672,14.2473 -28.03475,22.04128 -13.82006,-10.97684 -20.70025,-15.70778 -29.79019,-22.4275 l 17.63635,0.57934 1.69292,0 0,-1.69292 c -0.34004,-11.34465 -1.55364,-22.6893 0,-34.03395 z"
       id="rect3769"
       inkscape:connector-curvature="0"
       sodipodi:nodetypes="cccccccccccccccccccccccccccccc" />
    <g
       id="g5096"
       style="fill:#ffffff"
       transform="translate(125,-297)"
       inkscape:export-filename="/Users/sp598/scratch/proximitus/public/img/arrows/linking-arrow.png"
       inkscape:export-xdpi="90.188248"
       inkscape:export-ydpi="90.188248">
      <path
         id="path5070"
         d="m 174,468.125 c -7.69891,1.39137 -15.52743,2.02963 -23.15625,3.8125 -1.56739,1.57061 -0.86774,4.02557 -0.0937,5.8125 6.40772,0.8975 12.59185,-1.55988 18.90625,-2.125 2.25245,-0.89646 4.98686,0.43161 7.03125,-1.15625 1.86572,-2.11431 0.60697,-6.84411 -2.6875,-6.34375 z"
         style="font-size:medium;font-style:normal;font-variant:normal;font-weight:normal;font-stretch:normal;text-indent:0;text-align:start;text-decoration:none;line-height:normal;letter-spacing:normal;word-spacing:normal;text-transform:none;direction:ltr;block-progression:tb;writing-mode:lr-tb;text-anchor:start;baseline-shift:baseline;color:#000000;fill:#ffffff;fill-opacity:1;stroke:none;stroke-width:6.80000019;marker:none;visibility:visible;display:inline;overflow:visible;enable-background:accumulate;font-family:Sans;-inkscape-font-specification:Sans"
         inkscape:connector-curvature="0" />
      <path
         id="path5068"
         d="m 185.28125,468.46875 c -2.8543,1.62431 -1.19822,6.85258 2.09375,6.46875 7.17881,0.17807 14.23173,1.66983 21.375,2.25 3.14933,-0.61902 3.03254,-6.06315 -0.15625,-6.53125 -7.55991,-1.51297 -15.27832,-1.99771 -22.96875,-2.28125 l -0.34375,0.0937 z"
         style="font-size:medium;font-style:normal;font-variant:normal;font-weight:normal;font-stretch:normal;text-indent:0;text-align:start;text-decoration:none;line-height:normal;letter-spacing:normal;word-spacing:normal;text-transform:none;direction:ltr;block-progression:tb;writing-mode:lr-tb;text-anchor:start;baseline-shift:baseline;color:#000000;fill:#ffffff;fill-opacity:1;stroke:none;stroke-width:6.80000019;marker:none;visibility:visible;display:inline;overflow:visible;enable-background:accumulate;font-family:Sans;-inkscape-font-specification:Sans"
         inkscape:connector-curvature="0" />
      <path
         id="path5066"
         d="m 218.90625,473.78125 c -2.63855,1.31227 -1.83403,6.11811 1.1875,6.3125 6.88105,1.94901 13.31946,5.12846 20.0625,7.46875 3.46676,-0.13934 4.28245,-5.92295 1,-7.03125 -7.17094,-2.67404 -14.31268,-5.6558 -21.90625,-6.90625 l -0.34346,0.15612 -2.9e-4,1.3e-4 z"
         style="font-size:medium;font-style:normal;font-variant:normal;font-weight:normal;font-stretch:normal;text-indent:0;text-align:start;text-decoration:none;line-height:normal;letter-spacing:normal;word-spacing:normal;text-transform:none;direction:ltr;block-progression:tb;writing-mode:lr-tb;text-anchor:start;baseline-shift:baseline;color:#000000;fill:#ffffff;fill-opacity:1;stroke:none;stroke-width:6.80000019;marker:none;visibility:visible;display:inline;overflow:visible;enable-background:accumulate;font-family:Sans;-inkscape-font-specification:Sans"
         inkscape:connector-curvature="0" />
      <path
         id="path5064"
         d="m 251.28125,486.0625 c -1.75433,1.2363 -3.44291,3.47902 -2.59375,5.71875 2.02239,2.49067 5.78864,2.32826 7.875,4.78125 2.4717,2.18679 5.35314,3.8579 8.24123,5.4113 1.62832,1.30188 3.45744,3.42915 5.79002,2.5887 2.30894,-0.80183 3.3127,-4.4655 1.03863,-5.87816 -4.57116,-3.13916 -8.95635,-6.57285 -13.83912,-9.23342 -2.05011,-1.0257 -3.79524,-2.66338 -5.98076,-3.38842 l -0.25,-0.0312 -0.28125,0.0312 z"
         style="font-size:medium;font-style:normal;font-variant:normal;font-weight:normal;font-stretch:normal;text-indent:0;text-align:start;text-decoration:none;line-height:normal;letter-spacing:normal;word-spacing:normal;text-transform:none;direction:ltr;block-progression:tb;writing-mode:lr-tb;text-anchor:start;baseline-shift:baseline;color:#000000;fill:#ffffff;fill-opacity:1;stroke:none;stroke-width:6.80000019;marker:none;visibility:visible;display:inline;overflow:visible;enable-background:accumulate;font-family:Sans;-inkscape-font-specification:Sans"
         inkscape:connector-curvature="0" />
      <path
         id="path5062"
         d="m 105.1875,493.40625 c -4.90345,3.68363 -9.72566,7.48392 -14.28125,11.59375 -1.229716,2.04805 0.387979,4.63422 2.40625,5.40625 4.428723,-1.0821 6.88865,-5.35876 10.75,-7.4375 3.14136,-2.48463 6.38588,-4.83315 9.625,-7.1875 1.19161,-2.51912 -0.83097,-5.78637 -3.5625,-6.03125 -1.64583,1.21875 -3.29167,2.4375 -4.9375,3.65625 z"
         style="font-size:medium;font-style:normal;font-variant:normal;font-weight:normal;font-stretch:normal;text-indent:0;text-align:start;text-decoration:none;line-height:normal;letter-spacing:normal;word-spacing:normal;text-transform:none;direction:ltr;block-progression:tb;writing-mode:lr-tb;text-anchor:start;baseline-shift:baseline;color:#000000;fill:#ffffff;fill-opacity:1;stroke:none;stroke-width:6.80000019;marker:none;visibility:visible;display:inline;overflow:visible;enable-background:accumulate;font-family:Sans;-inkscape-font-specification:Sans"
         inkscape:connector-curvature="0" />
      <path
         id="path5060"
         d="m 275.09375,509.9375 c 6.90399,5.64724 13.28855,11.89757 19.3125,18.46875 1.50196,-1.70485 3.7148,-2.76891 4.75,-4.875 -6.0995,-6.73384 -12.70491,-13.00172 -19.6875,-18.8125 -1.45833,1.73958 -2.91667,3.47917 -4.375,5.21875 z"
         style="font-size:medium;font-style:normal;font-variant:normal;font-weight:normal;font-stretch:normal;text-indent:0;text-align:start;text-decoration:none;line-height:normal;letter-spacing:normal;word-spacing:normal;text-transform:none;direction:ltr;block-progression:tb;writing-mode:lr-tb;text-anchor:start;baseline-shift:baseline;color:#000000;fill:#ffffff;fill-opacity:1;stroke:none;stroke-width:6.80000019;marker:none;visibility:visible;display:inline;overflow:visible;enable-background:accumulate;font-family:Sans;-inkscape-font-specification:Sans"
         inkscape:connector-curvature="0" />
      <path
         id="path5007"
         d="m 83.5,513.3125 c -5.951102,5.44679 -9.941398,12.55947 -14.9375,18.8125 -0.184253,2.25024 2.078404,3.48879 3.75,4.4375 5.349733,-3.63436 8.250239,-9.65362 12.605687,-14.26729 1.288933,-1.86308 3.403192,-3.36587 3.800563,-5.70146 -0.07863,-2.1742 -1.964167,-3.87237 -4,-4.3125 -0.40625,0.34375 -0.8125,0.6875 -1.21875,1.03125 z"
         style="font-size:medium;font-style:normal;font-variant:normal;font-weight:normal;font-stretch:normal;text-indent:0;text-align:start;text-decoration:none;line-height:normal;letter-spacing:normal;word-spacing:normal;text-transform:none;direction:ltr;block-progression:tb;writing-mode:lr-tb;text-anchor:start;baseline-shift:baseline;color:#000000;fill:#ffffff;fill-opacity:1;stroke:none;stroke-width:6.80000019;marker:none;visibility:visible;display:inline;overflow:visible;enable-background:accumulate;font-family:Sans;-inkscape-font-specification:Sans"
         inkscape:connector-curvature="0" />
      <path
         sodipodi:nodetypes="cccc"
         d="m 290.57258,495.81988 c 4.72899,11.99867 7.97805,22.84748 16.48048,44.54506 -13.16854,-7.75209 -25.41036,-15.50417 -41.41274,-23.25626 11.22873,-5.40288 22.02756,-9.49796 24.93226,-21.2888 z"
         style="font-size:12px;fill:#ffffff;fill-rule:evenodd;stroke-width:0.625;stroke-linejoin:round"
         id="path5004"
         inkscape:connector-curvature="0" />
      <path
         inkscape:connector-curvature="0"
         style="font-size:medium;font-style:normal;font-variant:normal;font-weight:normal;font-stretch:normal;text-indent:0;text-align:start;text-decoration:none;line-height:normal;letter-spacing:normal;word-spacing:normal;text-transform:none;direction:ltr;block-progression:tb;writing-mode:lr-tb;text-anchor:start;baseline-shift:baseline;color:#000000;fill:#ffffff;fill-opacity:1;stroke:none;stroke-width:6.80000019;marker:none;visibility:visible;display:inline;overflow:visible;enable-background:accumulate;font-family:Sans;-inkscape-font-specification:Sans"
         d="m 134.65746,476.91703 c -5.64112,2.40637 -11.23122,4.94543 -16.6363,7.84873 -1.68314,1.69522 -0.72969,4.59283 1.04589,5.82441 4.559,0.007 7.96886,-3.55908 12.21485,-4.65579 3.64373,-1.66275 7.35514,-3.16871 11.0627,-4.68161 1.7586,-2.16176 0.57459,-5.81743 -2.01948,-6.70739 -1.88922,0.79055 -3.77844,1.5811 -5.66766,2.37165 z"
         id="path5094" />
    </g>
  </g>
</svg>
